<?xml version="1.0" standalone="no"?>
<!DOCTYPE svg PUBLIC "-//W3C//DTD SVG 20010904//EN"
 "http://www.w3.org/TR/2001/REC-SVG-20010904/DTD/svg10.dtd">
<svg version="1.0" xmlns="http://www.w3.org/2000/svg"
 width="300.000000pt" height="123.000000pt" viewBox="0 0 300.000000 123.000000"
 preserveAspectRatio="xMidYMid meet">
<metadata>
Created by potrace 1.10, written by Peter Selinger 2001-2011
</metadata>
<g transform="translate(0.000000,123.000000) scale(0.100000,-0.100000)"
fill="906B1E" stroke="#FFBD33" stroke-width="10">
<path d="M1403 999 c-26 -10 -35 -23 -48 -74 -8 -27 -17 -41 -30 -44 -28 -5
-45 -21 -45 -42 0 -31 -43 -24 -69 12 -41 55 -96 61 -128 13 -13 -21 -14 -31
-4 -63 9 -33 8 -46 -8 -84 -27 -63 -43 -68 -25 -7 23 76 -10 118 -101 131 -72
10 -117 -4 -160 -47 l-35 -35 -31 36 c-36 40 -90 59 -136 46 -16 -5 -41 -7
-54 -4 -50 9 -65 -19 -124 -233 -30 -110 -55 -210 -55 -223 0 -36 52 -81 93
-81 44 0 52 10 72 90 l16 65 88 0 c66 0 93 4 114 18 26 17 28 17 56 -4 25 -19
37 -21 83 -15 64 8 72 8 121 0 54 -9 93 11 124 64 l26 44 19 -36 c35 -68 89
-86 175 -60 22 6 23 4 17 -40 -11 -79 48 -136 141 -136 64 0 118 30 165 92 19
25 53 61 75 78 51 40 95 105 95 141 0 18 -10 36 -31 53 -29 24 -30 28 -19 61
13 38 6 57 -32 91 -59 54 -108 28 -126 -66 -12 -61 -30 -115 -37 -108 -2 2 4
32 15 67 25 83 11 118 -58 147 -32 13 -34 16 -28 48 6 29 2 40 -24 69 -34 39
-56 48 -87 36z m54 -77 c-3 -21 -8 -46 -13 -56 -6 -16 -4 -18 14 -14 12 4 26
0 33 -8 17 -20 -6 -44 -42 -44 -21 0 -29 -5 -29 -17 0 -10 -12 -56 -25 -102
-31 -105 -31 -111 -1 -111 31 0 47 27 70 115 34 132 49 152 91 121 18 -13 18
-16 -9 -109 -16 -52 -25 -100 -22 -106 12 -19 51 -12 73 12 12 12 31 58 42
101 22 89 42 117 69 100 26 -16 25 -50 -2 -144 -13 -47 -23 -86 -21 -88 2 -2
16 15 31 38 28 42 56 50 62 17 5 -25 -45 -95 -90 -124 -20 -14 -48 -42 -62
-63 -42 -64 -90 -94 -151 -94 -63 -1 -95 21 -95 66 0 40 30 64 95 78 l57 12
-34 17 c-31 16 -35 15 -66 -2 -35 -21 -74 -17 -103 9 -14 13 -18 13 -29 -1 -7
-9 -29 -15 -50 -15 -30 0 -43 6 -59 26 -25 32 -28 107 -7 159 8 18 12 36 8 39
-10 11 -32 6 -32 -6 0 -6 -23 -54 -52 -106 -66 -119 -114 -148 -169 -103 -23
18 -25 18 -43 3 -11 -11 -35 -17 -63 -17 -36 0 -49 5 -67 26 -22 25 -22 25
-47 7 -48 -36 -153 -49 -200 -24 l-26 13 -24 -86 c-22 -77 -26 -86 -48 -86
-49 0 -48 21 9 227 29 106 57 201 62 211 7 14 17 18 35 14 15 -3 39 0 54 5 36
12 93 -5 114 -35 19 -28 19 -107 0 -154 -8 -20 -13 -38 -10 -41 10 -10 55 41
55 62 0 37 47 122 79 146 30 21 48 24 143 20 44 -2 48 -17 28 -105 -25 -105
-25 -135 -2 -135 25 0 43 22 92 112 40 74 41 78 29 118 -11 35 -10 43 3 56 22
22 54 9 66 -26 9 -23 19 -30 54 -37 55 -11 59 -30 24 -117 -30 -75 -32 -94
-10 -103 27 -10 45 21 73 123 l28 99 -21 10 c-30 15 -26 39 8 45 25 4 31 12
43 55 17 60 37 79 66 64 15 -9 18 -18 14 -47z"/>
<path d="M866 739 c-28 -22 -61 -115 -50 -142 8 -22 36 -22 63 1 22 18 53 114
45 137 -9 23 -32 25 -58 4z"/>
<path d="M586 728 c-32 -50 -59 -117 -53 -132 23 -60 116 51 105 126 -4 31
-33 34 -52 6z"/>
<path d="M1478 428 c-37 -10 -52 -28 -24 -28 23 0 76 22 76 31 0 10 -2 10 -52
-3z"/>
<path d="M2384 991 c-35 -21 -79 -86 -124 -182 l-30 -66 -54 54 c-38 38 -61
53 -80 53 -72 0 -145 -65 -171 -152 -19 -66 -19 -94 4 -143 40 -88 130 -132
206 -101 21 9 38 16 39 16 0 0 2 -17 4 -37 5 -77 76 -144 137 -129 41 10 81
59 94 114 11 43 16 49 57 66 45 18 86 61 99 104 5 18 -1 30 -28 57 -40 40 -58
39 -99 -9 -44 -50 -32 -15 13 39 45 54 84 131 94 187 9 47 -16 103 -57 128
-41 25 -64 25 -104 1z m90 -27 c16 -16 19 -30 17 -74 -3 -38 -66 -160 -106
-203 l-35 -38 21 -30 c31 -43 55 -39 93 15 17 24 46 15 46 -15 0 -44 -74 -97
-127 -90 -7 1 -15 -18 -19 -49 -9 -72 -40 -114 -85 -118 -56 -5 -74 23 -74
113 l0 72 -30 -9 c-16 -5 -42 -16 -57 -24 -14 -8 -42 -14 -62 -14 -102 0 -146
124 -83 234 28 49 62 75 110 83 33 5 39 3 43 -14 3 -11 17 -26 30 -32 14 -6
32 -27 40 -47 13 -31 13 -42 1 -85 -8 -27 -11 -49 -6 -49 11 0 34 49 79 167
69 177 151 261 204 207z"/>
<path d="M2424 899 c-20 -24 -106 -201 -100 -206 6 -7 63 72 93 130 25 50 30
105 7 76z"/>
<path d="M2100 704 c-16 -42 -10 -104 10 -104 5 0 15 19 23 43 22 65 -9 124
-33 61z"/>
<path d="M2032 693 c-20 -40 -23 -75 -7 -99 20 -30 40 -33 24 -3 -6 12 -9 43
-7 70 1 27 2 49 1 49 -1 0 -6 -8 -11 -17z"/>
<path d="M2271 543 c-17 -80 -18 -115 -4 -120 21 -8 43 136 24 165 -5 9 -12
-7 -20 -45z"/>
</g>
</svg>
